<?xml version="1.0" encoding="utf-8"?>
<!-- Generator: Adobe Illustrator 23.0.0, SVG Export Plug-In . SVG Version: 6.00 Build 0)  -->
<svg version="1.1" id="图层_1" xmlns="http://www.w3.org/2000/svg" xmlns:xlink="http://www.w3.org/1999/xlink" x="0px" y="0px"
	 viewBox="0 0 217.9 16.1" style="enable-background:new 0 0 217.9 16.1;" xml:space="preserve">
<style type="text/css">
	.st0{fill:#FF6B3E;}
</style>
<g>
	<polygon class="st0" points="139,2.8 146.4,13.3 215.9,13.3 208.4,2.8 	"/>
	<g>
		<g>
			<polygon class="st0" points="126.6,2.8 134,13.3 140.7,13.3 133.3,2.8 			"/>
			<polygon class="st0" points="115.3,2.8 122.7,13.3 129.4,13.3 121.9,2.8 			"/>
			<polygon class="st0" points="104,2.8 111.3,13.3 118.1,13.3 110.6,2.8 			"/>
			<polygon class="st0" points="92.6,2.8 100,13.3 106.7,13.3 99.3,2.8 			"/>
			<polygon class="st0" points="81.3,2.8 88.7,13.3 95.4,13.3 88,2.8 			"/>
			<polygon class="st0" points="70,2.8 77.4,13.3 84.1,13.3 76.6,2.8 			"/>
			<polygon class="st0" points="58.6,2.8 66,13.3 72.7,13.3 65.3,2.8 			"/>
			<polygon class="st0" points="47.3,2.8 54.7,13.3 61.4,13.3 54,2.8 			"/>
			<polygon class="st0" points="36,2.8 43.4,13.3 50.1,13.3 42.7,2.8 			"/>
			<polygon class="st0" points="24.7,2.8 32,13.3 38.8,13.3 31.3,2.8 			"/>
			<polygon class="st0" points="13.3,2.8 20.7,13.3 27.4,13.3 20,2.8 			"/>
			<polygon class="st0" points="2,2.8 9.4,13.3 16.1,13.3 8.7,2.8 			"/>
		</g>
	</g>
</g>
</svg>
