<?xml version="1.0" encoding="utf-8"?>
<!-- Generator: Adobe Illustrator 23.0.0, SVG Export Plug-In . SVG Version: 6.00 Build 0)  -->
<svg version="1.1" id="图层_1" xmlns="http://www.w3.org/2000/svg" xmlns:xlink="http://www.w3.org/1999/xlink" x="0px" y="0px"
	 viewBox="0 0 100 100" style="enable-background:new 0 0 100 100;" xml:space="preserve">
<style type="text/css">
	.st0{opacity:0.9;fill:#06382E;}
	.st1{fill:#5FC7BD;}
	.st2{fill:#21FAA1;}
</style>
<circle class="st0" cx="50" cy="50" r="50"/>
<path class="st1" d="M50,92.2c-11.3,0-21.9-4.4-29.9-12.4c-8-8-12.4-18.6-12.4-29.9s4.4-21.9,12.4-29.9c8-8,18.6-12.4,29.9-12.4
	s21.9,4.4,29.9,12.4c8,8,12.4,18.6,12.4,29.9s-4.4,21.9-12.4,29.9C71.9,87.9,61.3,92.2,50,92.2z M50,12.1c-20.9,0-37.9,17-37.9,37.9
	c0,20.9,17,37.9,37.9,37.9c20.9,0,37.9-17,37.9-37.9C87.9,29.1,70.9,12.1,50,12.1z"/>
<g>
	<path class="st2" d="M60.9,37.8c0.1,0,0.3-0.1,0.4-0.2c0.2-0.2,0.3-0.6,0-0.8L50.5,25c0,0-0.1-0.1-0.1-0.1
		c-0.1-0.1-0.2-0.1-0.4-0.2c0,0,0,0,0,0c0,0,0,0,0,0c-0.1,0-0.3,0.1-0.4,0.2c0,0-0.1,0.1-0.1,0.1L38.7,36.8c-0.2,0.2-0.2,0.6,0,0.8
		c0.1,0.1,0.3,0.2,0.4,0.2c0.2,0,0.3-0.1,0.4-0.2L50,26.2l10.5,11.4C60.6,37.7,60.8,37.8,60.9,37.8z"/>
	<path class="st2" d="M50,17.8c-17.8,0-32.2,14.4-32.2,32.2c0,17.8,14.4,32.2,32.2,32.2c17.8,0,32.2-14.4,32.2-32.2
		C82.2,32.2,67.8,17.8,50,17.8z M50.7,81.1c-0.2,0-0.5,0-0.7,0c-0.2,0-0.5,0-0.7,0L49,64.4c0,0,0.9-1.9,1-3.3c0.1,1.4,1,3.3,1,3.3
		L50.7,81.1z M72,72c-2.9,2.9-6.2,5.1-9.9,6.7c-3.2,1.3-6.5,2.1-10,2.4c0-2.8,0.1-14.9,0-16.5c-0.8-2.8-1.2-4.9-1.5-6.4
		c-0.1-0.6-0.2-1.1-0.2-1.5c-0.1-1.2-0.1-2-0.1-2.7c-0.2-6.8,3-11.2,3-11.2l-2.7-3.9c0.1,0.1,2.9,2.6,3.4,3c2.8-3.4,4.7-3.5,4.7-3.5
		L50,28.7c0,0,0,0,0,0l0,0l0,0c0,0,0,0,0,0l-8.7,9.6c0,0,1.9,0,4.7,3.5c0.6-0.4,3.3-2.9,3.4-3l-2.7,3.9c0,0,3.1,4.3,2.9,11.2
		c0,0.7,0,1.5-0.1,2.7c0,0.5-0.1,1-0.2,1.5c-0.2,1.5-0.7,3.6-1.5,6.4c-0.1,1.6,0,13.7,0,16.5c-3.4-0.2-6.8-1-10-2.4
		c-3.7-1.6-7-3.8-9.9-6.7c-2.9-2.9-5.1-6.2-6.7-9.9c-1.6-3.8-2.4-7.9-2.4-12.1c0-4,0.7-7.8,2.2-11.4l0.7,0.8
		c0.1,1.6,0.5,7.2,3.1,12.9c1.8,3.9,4.2,7,7.3,9.3c3.8,2.8,8.6,4.3,14.1,4.4h0c0.2,0,0.5-0.2,0.6-0.4c0,0,1-2.8,1.5-6.8
		c0-0.4-0.2-0.7-0.6-0.7h0c-0.3,0-0.6,0.2-0.6,0.5c-0.4,2.9-1,5.3-1.3,6.2c-9.4-0.3-16.1-4.6-19.9-13c-2.5-5.4-2.9-10.8-3-12.4
		c10-1.9,17.1-0.6,20.9,3.9c2.7,3.2,3.5,7.5,3.5,11.5L26.6,41c-0.4-0.3-1,0.2-0.8,0.6c6.4,16.3,20.2,14.2,21,14.3
		c0.1,0.1,0.2,0.3,0.4,0.4c0.2,0.1,0.3,0.2,0.5,0.2l0,0c0.5,0,0.9-0.4,0.9-0.9c0.2-5.5-1.1-10.1-3.8-13.1
		c-4.2-4.9-11.8-6.3-22.4-4.2l-0.9-0.9c1.6-3.5,3.7-6.6,6.4-9.4c2.9-2.9,6.2-5.1,9.9-6.7c3.6-1.5,7.4-2.3,11.3-2.4L33.5,34.4
		c-0.2,0.2-0.2,0.6,0,0.8c0.1,0.1,0.3,0.2,0.4,0.2c0.1,0,0.3-0.1,0.4-0.2L50,19.9l15.7,15.4c0.1,0.1,0.3,0.2,0.4,0.2
		c0.2,0,0.3-0.1,0.4-0.2c0.2-0.2,0.2-0.6,0-0.8L50.8,18.9c3.9,0.1,7.7,0.9,11.3,2.4c3.7,1.6,7,3.8,9.9,6.7c2.7,2.7,4.9,5.8,6.4,9.3
		l-0.9,0.9c-10.6-2.1-18.1-0.7-22.3,4.2c-2.6,3.1-3.9,7.6-3.8,13.1c0,0.5,0.4,0.9,0.9,0.9l0,0c0.2,0,0.4-0.1,0.5-0.2
		c0.2-0.1,0.4-0.3,0.4-0.4c0.7-0.1,14.6,2,21-14.3c0.2-0.5-0.4-0.9-0.8-0.6L52.5,54.7c0-4,0.8-8.3,3.5-11.5
		c3.9-4.5,10.9-5.8,20.9-3.9c0,0,0,0.1,0.1,0.1c-0.1,1.7-0.6,7-3,12.3c-3.8,8.4-10.5,12.7-19.9,13c-0.3-0.9-0.9-3.2-1.3-6.2
		c0-0.3-0.3-0.5-0.6-0.5l0,0c-0.4,0-0.6,0.3-0.6,0.7c0.5,4,1.4,6.8,1.5,6.8c0.1,0.2,0.3,0.4,0.6,0.4h0c5.5-0.1,10.3-1.6,14.1-4.4
		c3.1-2.3,5.5-5.4,7.3-9.3c2.7-5.8,3-11.5,3.1-13l0.7-0.7c1.5,3.7,2.2,7.5,2.2,11.5c0,4.2-0.8,8.3-2.4,12.1
		C77.1,65.8,74.8,69.1,72,72z"/>
</g>
</svg>
